{
    "asset" : {
        "generator" : "Khronos glTF Blender I/O v1.6.16",
        "version" : "2.0"
    },
    "scene" : 0,
    "scenes" : [
        {
            "name" : "Scene",
            "nodes" : [
                0,
                1,
                2
            ]
        }
    ],
    "nodes" : [
        {
            "name" : "Light",
            "rotation" : [
                0.16907575726509094,
                0.7558803558349609,
                -0.27217137813568115,
                0.570947527885437
            ],
            "translation" : [
                4.076245307922363,
                5.903861999511719,
                -1.0054539442062378
            ]
        },
        {
            "name" : "Camera",
            "rotation" : [
                0.483536034822464,
                0.33687159419059753,
                -0.20870360732078552,
                0.7804827094078064
            ],
            "translation" : [
                7.358891487121582,
                4.958309173583984,
                6.925790786743164
            ]
        },
        {
            "mesh" : 0,
            "name" : "sh_oldOxfordShoe",
            "rotation" : [
                0.7071068286895752,
                0,
                0,
                0.7071067094802856
            ]
        }
    ],
    "materials" : [
        {
            "alphaMode" : "BLEND",
            "doubleSided" : true,
            "name" : "sh_oldOxfordShoe",
            "normalTexture" : {
                "index" : 0
            },
            "pbrMetallicRoughness" : {
                "baseColorTexture" : {
                    "index" : 1
                },
                "metallicFactor" : 0,
                "metallicRoughnessTexture" : {
                    "index" : 2
                }
            }
        }
    ],
    "meshes" : [
        {
            "name" : "sh_oldOxfordShoe",
            "primitives" : [
                {
                    "attributes" : {
                        "POSITION" : 0,
                        "NORMAL" : 1,
                        "TEXCOORD_0" : 2
                    },
                    "indices" : 3,
                    "material" : 0
                }
            ]
        }
    ],
    "textures" : [
        {
            "sampler" : 0,
            "source" : 0
        },
        {
            "sampler" : 0,
            "source" : 1
        },
        {
            "sampler" : 0,
            "source" : 2
        }
    ],
    "images" : [
        {
            "mimeType" : "image/jpeg",
            "name" : "sh_oldOxfordShoe_nrm",
            "uri" : "sh_oldOxfordShoe_nrm.jpg"
        },
        {
            "mimeType" : "image/jpeg",
            "name" : "sh_oldOxfordShoe_albedo",
            "uri" : "sh_oldOxfordShoe_albedo.jpg"
        },
        {
            "mimeType" : "image/png",
            "name" : "sh_oldOxfordShoe_rough",
            "uri" : "sh_oldOxfordShoe_rough.png"
        }
    ],
    "accessors" : [
        {
            "bufferView" : 0,
            "componentType" : 5126,
            "count" : 11206,
            "max" : [
                0.16843199729919434,
                0.05681199952960014,
                0.0005830000154674053
            ],
            "min" : [
                -0.13812600076198578,
                -0.05742400139570236,
                -0.10676699876785278
            ],
            "type" : "VEC3"
        },
        {
            "bufferView" : 1,
            "componentType" : 5126,
            "count" : 11206,
            "type" : "VEC3"
        },
        {
            "bufferView" : 2,
            "componentType" : 5126,
            "count" : 11206,
            "type" : "VEC2"
        },
        {
            "bufferView" : 3,
            "componentType" : 5123,
            "count" : 59946,
            "type" : "SCALAR"
        }
    ],
    "bufferViews" : [
        {
            "buffer" : 0,
            "byteLength" : 134472,
            "byteOffset" : 0
        },
        {
            "buffer" : 0,
            "byteLength" : 134472,
            "byteOffset" : 134472
        },
        {
            "buffer" : 0,
            "byteLength" : 89648,
            "byteOffset" : 268944
        },
        {
            "buffer" : 0,
            "byteLength" : 119892,
            "byteOffset" : 358592
        }
    ],
    "samplers" : [
        {
            "magFilter" : 9729,
            "minFilter" : 9987
        }
    ],
    "buffers" : [
        {
            "byteLength" : 478484,
            "uri" : "Shoe-ToniRossi-Test.bin"
        }
    ]
}
